<svg xmlns="http://www.w3.org/2000/svg" xmlns:xlink="http://www.w3.org/1999/xlink" width="1080" zoomAndPan="magnify" viewBox="0 0 810 809.999993" height="1080" preserveAspectRatio="xMidYMid meet" version="1.0"><path fill="#000000" d="M 809.953125 404.96875 C 809.953125 628.628906 628.636719 809.945312 404.972656 809.945312 C 181.3125 809.945312 0 628.628906 0 404.96875 C 0 181.304688 181.3125 -0.00390625 404.972656 -0.00390625 C 628.636719 -0.00390625 809.953125 181.304688 809.953125 404.96875 " fill-opacity="1" fill-rule="nonzero"/><path fill="#ffffff" d="M 794.703125 405.261719 C 794.703125 619.851562 620.742188 793.816406 406.148438 793.816406 C 191.5625 793.816406 17.601562 619.851562 17.601562 405.261719 C 17.601562 190.671875 191.5625 16.710938 406.148438 16.710938 C 620.742188 16.710938 794.703125 190.671875 794.703125 405.261719 " fill-opacity="1" fill-rule="nonzero"/><path fill="#000000" d="M 407.355469 16.917969 C 406.960938 16.917969 406.566406 16.929688 406.171875 16.929688 C 405.773438 16.921875 405.375 16.917969 404.972656 16.917969 C 190.386719 16.917969 16.425781 190.878906 16.425781 405.464844 C 16.425781 610.757812 175.648438 778.84375 377.335938 793.023438 C 282.792969 779.667969 210.066406 698.441406 210.066406 600.210938 C 210.066406 496.769531 290.722656 412.175781 392.574219 405.859375 C 397.453125 406.222656 402.382812 406.414062 407.355469 406.414062 C 514.914062 406.414062 602.105469 319.222656 602.105469 211.664062 C 602.105469 104.109375 514.914062 16.917969 407.355469 16.917969 " fill-opacity="1" fill-rule="nonzero"/><path fill="#ffffff" d="M 481.9375 216.117188 C 481.9375 251.949219 452.894531 280.996094 417.058594 280.996094 C 381.226562 280.996094 352.175781 251.949219 352.175781 216.117188 C 352.175781 180.28125 381.226562 151.230469 417.058594 151.230469 C 452.894531 151.230469 481.9375 180.28125 481.9375 216.117188 " fill-opacity="1" fill-rule="nonzero"/><path fill="#000000" d="M 481.9375 615.738281 C 481.9375 651.570312 452.894531 680.617188 417.058594 680.617188 C 381.226562 680.617188 352.175781 651.570312 352.175781 615.738281 C 352.175781 579.902344 381.226562 550.851562 417.058594 550.851562 C 452.894531 550.851562 481.9375 579.902344 481.9375 615.738281 " fill-opacity="1" fill-rule="nonzero"/></svg>